<svg width="568" height="360" fill="none" xmlns="http://www.w3.org/2000/svg"><path fill="#FFFFFF" d="M0 0h568v252H0z"/><path d="M0 .133v251.532h568V.133H0zm430.339 221.591l-204.112-17.742-126.359-10.356-68.086-75.539 61.717-55.83 68.086-21.699 151.998-20.314 57.184 98.382L536.224 231.54l-105.885-9.82v.004zM31.94 302.601c4.238-2.08 9.061-3.124 14.473-3.124 5.07 0 9.667.82 13.785 2.455 4.117 1.64 7.92 4.54 11.412 8.699l13.722-3.788c-3.745-5.869-8.73-10.472-14.974-13.816-6.242-3.344-14.22-5.014-23.95-5.014-6.238 0-11.976.889-17.214 2.662-5.238 1.773-9.793 4.263-13.658 7.473-3.866 3.206-6.863 7.012-8.983 11.413-2.12 4.401-3.182 9.195-3.182 14.381 0 6.891 1.767 13.053 5.302 18.476 3.534 5.424 8.546 9.691 15.03 12.794 6.49 3.106 14.053 4.655 22.705 4.655 9.73 0 17.713-1.669 23.95-5.013 6.238-3.344 11.229-7.948 14.974-13.817l-13.722-3.788c-3.492 4.164-7.3 7.063-11.413 8.699-4.117 1.639-8.714 2.455-13.784 2.455-5.407 0-10.23-1.04-14.473-3.12-4.245-2.079-7.61-4.966-10.109-8.651-2.493-3.685-3.74-7.913-3.74-12.69 0-4.776 1.247-9.005 3.74-12.69 2.498-3.685 5.864-6.567 10.108-8.647v-.004zM111.907 289.04H97.433v69.701h14.474V289.04zM188.376 337.292l-44.661-48.252h-12.723v69.701h14.469v-48.27l44.661 48.27h12.728V289.04h-14.474v48.252zM221.815 358.741h52.518v-11.257h-38.05v-18.118h30.814v-11.257h-30.814v-17.812h38.05V289.04h-52.518v69.701zM336.961 332.386c4.491-1.946 8.004-4.655 10.545-8.137 2.535-3.478 3.802-7.474 3.802-11.974s-1.267-8.496-3.802-11.974c-2.541-3.477-6.054-6.226-10.545-8.237-4.492-2.01-9.688-3.02-15.594-3.02h-31.314v69.701h14.474v-23.438h16.156l15.657 23.438h15.846l-17.108-25.612a30.327 30.327 0 001.888-.742l-.005-.005zm-32.434-32.089H319.5c5.154 0 9.251 1.01 12.286 3.02 3.034 2.015 4.554 5.001 4.554 8.958 0 3.685-1.52 6.567-4.554 8.651-3.035 2.08-7.132 3.12-12.286 3.12h-14.973V300.297zM443.997 322.307h-41.543v10.951h27.601a17.814 17.814 0 01-2.835 5.221c-2.456 3.141-5.759 5.613-9.919 7.421-4.16 1.808-8.814 2.71-13.974 2.71-5.159 0-10.103-1.057-14.347-3.171-4.244-2.115-7.61-5.014-10.108-8.699-2.493-3.685-3.74-7.883-3.74-12.591 0-4.707 1.247-9.212 3.74-12.897 2.498-3.685 5.864-6.567 10.108-8.647 4.239-2.079 9.062-3.123 14.474-3.123 4.991 0 9.545.785 13.658 2.355 4.118 1.571 7.92 4.402 11.418 8.496l13.721-3.788c-3.744-5.735-8.73-10.252-14.973-13.562-6.237-3.309-14.179-4.962-23.83-4.962-6.237 0-11.975.889-17.213 2.663-5.238 1.773-9.793 4.284-13.659 7.52-3.865 3.241-6.863 7.064-8.982 11.465-2.12 4.401-3.182 9.229-3.182 14.48 0 6.826 1.788 12.932 5.364 18.321 3.577 5.389 8.589 9.639 15.031 12.742 6.443 3.106 13.995 4.655 22.641 4.655 5.822 0 11.229-.802 16.22-2.403 4.991-1.605 9.377-3.853 13.159-6.757 3.786-2.9 6.737-6.278 8.856-10.131 2.12-3.853 3.182-8.034 3.182-12.539a18.9 18.9 0 00-.247-2.969 20.897 20.897 0 00-.626-2.761h.005zM471.198 289.04h-14.473v69.701h14.473V289.04zM513.109 289.04l-30.188 69.701h14.594l6.511-15.149h35.905l6.359 15.149h14.72l-29.814-69.701h-18.092.005zm-4.323 43.502l13.416-31.201 13.101 31.201h-26.517z" fill="#0190F8"/></svg>